<?xml version="1.0" encoding="UTF-8"?>
<svg id="Layer_1" data-name="Layer 1" xmlns="http://www.w3.org/2000/svg" xmlns:xlink="http://www.w3.org/1999/xlink" viewBox="0 0 500 500">
  <defs>
    <style>
      .cls-1 {
        fill: #fab52e;
      }

      .cls-1, .cls-2, .cls-3, .cls-4 {
        fill-rule: evenodd;
      }

      .cls-5, .cls-2 {
        fill: #fff;
      }

      .cls-6 {
        fill: url(#New_Pattern);
      }

      .cls-7 {
        fill: none;
      }

      .cls-8 {
        fill: #030d24;
      }

      .cls-3 {
        fill: #fbce76;
      }

      .cls-4 {
        fill: #ffd030;
      }
    </style>
    <pattern id="New_Pattern" data-name="New Pattern" x="0" y="0" width="242.14" height="233.01" patternTransform="translate(0 500)" patternUnits="userSpaceOnUse" viewBox="0 0 242.14 233.01">
      <g>
        <rect class="cls-7" width="242.14" height="233.01"/>
        <g>
          <path class="cls-4" d="M126.2,236.34c-2.07,0-3.74-1.67-3.74-3.74s1.67-3.74,3.74-3.74,3.74,1.67,3.74,3.74-1.67,3.74-3.74,3.74h0Z"/>
          <path class="cls-3" d="M170.14,229.76c1.9-.93,4.62-2.35,5.67-2.95.37-.11.71-.11.93.23.82.85,2.98,2.98,4.51,4.51.23.23.6.23.93.11.37-.11.48-.48.48-.82-.37-2.13-.82-5.07-1.08-6.38,0-.25.11-.59.48-.82,1.05-.48,3.77-1.9,5.67-2.83.34-.25.48-.48.48-.85-.14-.34-.37-.57-.71-.71-2.13-.34-5.1-.82-6.27-.94-.37-.11-.71-.34-.71-.71-.26-1.19-.71-4.14-1.08-6.26,0-.34-.23-.71-.6-.71-.34-.11-.71.11-.82.37-1.05,2.01-2.35,4.59-2.95,5.78-.11.23-.48.48-.82.34-1.19-.11-4.14-.57-6.27-.94-.37-.11-.71.11-.93.37-.14.34,0,.71.23.94,1.53,1.53,3.54,3.66,4.48,4.59.26.26.37.6.14.96-.6,1.05-1.9,3.66-2.86,5.67-.23.23-.11.71.14.94.23.23.6.23.93.11h0Z"/>
          <path class="cls-1" d="M129.12,202.07c2.01-1.87,5.44-4.96,6.63-6.01.23-.25.57-.25.93-.11,1.3.82,5.3,3.06,7.68,4.48.34.23.71.11.93-.11.37-.26.37-.6.23-.96-1.16-2.58-2.95-6.6-3.66-8.13-.11-.23,0-.71.26-.93,1.16-1.08,4.48-4.02,6.61-5.92.23-.23.34-.59.23-.93-.11-.37-.45-.48-.82-.48-2.83.23-7.31.71-8.84.96-.37,0-.71-.14-.85-.48-.71-1.53-2.47-5.56-3.66-8.16-.11-.34-.45-.6-.82-.45-.34,0-.6.23-.71.57-.6,2.84-1.53,7.23-1.9,8.76,0,.34-.34.59-.71.59-1.53.23-6.01.71-8.84.94-.37.11-.6.37-.71.71-.11.37.11.6.34.82,2.49,1.42,6.38,3.66,7.8,4.51.26.11.48.45.37.82-.37,1.53-1.3,6.01-1.9,8.73,0,.37.11.71.48.94.23.14.6.14.94-.11h0Z"/>
          <path class="cls-2" d="M213.53,227.04c.6-.62,1.36-1.56,1.76-1.93.06-.14.34-.2.45-.14.51.2,1.62.65,2.47,1.05.14.06.4,0,.45-.14.14-.11.2-.4.06-.51-.45-.79-1.02-1.76-1.36-2.27-.06-.14-.06-.34.08-.51.31-.4,1.11-1.3,1.67-1.96.14-.2.2-.4.06-.51-.06-.2-.26-.28-.45-.2-.91.2-2.07.45-2.58.57-.2,0-.4-.06-.45-.2-.34-.51-.91-1.47-1.36-2.27-.14-.11-.34-.25-.45-.2-.2.09-.34.2-.4.4-.06.91-.11,2.07-.2,2.61,0,.2-.2.37-.31.37-.6.14-1.7.4-2.61.65-.2,0-.31.2-.31.4s.06.34.26.4c.85.4,1.96.85,2.41,1.02.17.09.31.28.31.45-.06.6-.2,1.7-.26,2.61,0,.2.11.4.26.45.2.06.4.06.51-.14h0Z"/>
          <path class="cls-5" d="M199.7,185.84l.37-7.09c0-.48-.34-.85-.79-.85-.48-.03-.85.34-.85.79l-.42,7.88c-2.58-1.62-4.99-3.03-5.33-3.03-.48,0-.85.37-.85.85,0,.45.37.82.85.82.11,0,2.13,1.25,4.42,2.69l-4.39,3.46c-.37.28-.42.82-.14,1.16.28.37.79.43,1.16.14l4.22-3.32-.11,6.69c0,.45.37.85.82.85s.82-.37.85-.82l.08-6.6c2.41,1.53,4.54,2.89,4.54,2.89.4.25.91.14,1.16-.26.23-.4.11-.91-.26-1.13-.03-.03-2.41-1.53-5.07-3.2l4.82-3.83c.37-.28.43-.79.14-1.16-.28-.37-.79-.43-1.16-.14l-4.05,3.21Z"/>
        </g>
        <g>
          <path class="cls-4" d="M5.13,236.34c-2.07,0-3.74-1.67-3.74-3.74s1.67-3.74,3.74-3.74,3.74,1.67,3.74,3.74-1.67,3.74-3.74,3.74h0Z"/>
          <path class="cls-3" d="M49.07,229.76c1.9-.93,4.62-2.35,5.67-2.95.37-.11.71-.11.93.23.82.85,2.98,2.98,4.51,4.51.23.23.6.23.93.11.37-.11.48-.48.48-.82-.37-2.13-.82-5.07-1.08-6.38,0-.25.11-.59.48-.82,1.05-.48,3.77-1.9,5.67-2.83.34-.25.48-.48.48-.85-.14-.34-.37-.57-.71-.71-2.13-.34-5.1-.82-6.27-.94-.37-.11-.71-.34-.71-.71-.26-1.19-.71-4.14-1.08-6.26,0-.34-.23-.71-.6-.71-.34-.11-.71.11-.82.37-1.05,2.01-2.35,4.59-2.95,5.78-.11.23-.48.48-.82.34-1.19-.11-4.14-.57-6.27-.94-.37-.11-.71.11-.93.37-.14.34,0,.71.23.94,1.53,1.53,3.54,3.66,4.48,4.59.26.26.37.6.14.96-.6,1.05-1.9,3.66-2.86,5.67-.23.23-.11.71.14.94.23.23.6.23.93.11h0Z"/>
          <path class="cls-1" d="M8.05,202.07c2.01-1.87,5.44-4.96,6.63-6.01.23-.25.57-.25.93-.11,1.3.82,5.3,3.06,7.68,4.48.34.23.71.11.93-.11.37-.26.37-.6.23-.96-1.16-2.58-2.95-6.6-3.66-8.13-.11-.23,0-.71.26-.93,1.16-1.08,4.48-4.02,6.61-5.92.23-.23.34-.59.23-.93-.11-.37-.45-.48-.82-.48-2.83.23-7.31.71-8.84.96-.37,0-.71-.14-.85-.48-.71-1.53-2.47-5.56-3.66-8.16-.11-.34-.45-.6-.82-.45-.34,0-.6.23-.71.57-.6,2.84-1.53,7.23-1.9,8.76,0,.34-.34.59-.71.59-1.53.23-6.01.71-8.84.94-.37.11-.6.37-.71.71-.11.37.11.6.34.82,2.49,1.42,6.38,3.66,7.8,4.51.26.11.48.45.37.82-.37,1.53-1.3,6.01-1.9,8.73,0,.37.11.71.48.94.23.14.6.14.94-.11h0Z"/>
          <path class="cls-2" d="M92.47,227.04c.6-.62,1.36-1.56,1.76-1.93.06-.14.34-.2.45-.14.51.2,1.62.65,2.47,1.05.14.06.4,0,.45-.14.14-.11.2-.4.06-.51-.45-.79-1.02-1.76-1.36-2.27-.06-.14-.06-.34.08-.51.31-.4,1.11-1.3,1.67-1.96.14-.2.2-.4.06-.51-.06-.2-.26-.28-.45-.2-.91.2-2.07.45-2.58.57-.2,0-.4-.06-.45-.2-.34-.51-.91-1.47-1.36-2.27-.14-.11-.34-.25-.45-.2-.2.09-.34.2-.4.4-.06.91-.11,2.07-.2,2.61,0,.2-.2.37-.31.37-.6.14-1.7.4-2.61.65-.2,0-.31.2-.31.4s.06.34.26.4c.85.4,1.96.85,2.41,1.02.17.09.31.28.31.45-.06.6-.2,1.7-.26,2.61,0,.2.11.4.26.45.2.06.4.06.51-.14h0Z"/>
          <path class="cls-5" d="M78.63,185.84l.37-7.09c0-.48-.34-.85-.79-.85-.48-.03-.85.34-.85.79l-.42,7.88c-2.58-1.62-4.99-3.03-5.33-3.03-.48,0-.85.37-.85.85,0,.45.37.82.85.82.11,0,2.13,1.25,4.42,2.69l-4.39,3.46c-.37.28-.42.82-.14,1.16.28.37.79.43,1.16.14l4.22-3.32-.11,6.69c0,.45.37.85.82.85s.82-.37.85-.82l.08-6.6c2.41,1.53,4.54,2.89,4.54,2.89.4.25.91.14,1.16-.26.23-.4.11-.91-.26-1.13-.03-.03-2.41-1.53-5.07-3.2l4.82-3.83c.37-.28.43-.79.14-1.16-.28-.37-.79-.43-1.16-.14l-4.05,3.21Z"/>
        </g>
        <g>
          <path class="cls-4" d="M186.74,119.83c-2.07,0-3.74-1.67-3.74-3.74s1.67-3.74,3.74-3.74,3.74,1.67,3.74,3.74-1.67,3.74-3.74,3.74h0Z"/>
          <path class="cls-3" d="M230.67,113.26c1.9-.93,4.62-2.35,5.67-2.95.37-.11.71-.11.93.23.82.85,2.98,2.98,4.51,4.51.23.23.6.23.93.11.37-.11.48-.48.48-.82-.37-2.13-.82-5.07-1.08-6.38,0-.25.11-.59.48-.82,1.05-.48,3.77-1.9,5.67-2.83.34-.25.48-.48.48-.85-.14-.34-.37-.57-.71-.71-2.13-.34-5.1-.82-6.27-.94-.37-.11-.71-.34-.71-.71-.26-1.19-.71-4.14-1.08-6.26,0-.34-.23-.71-.6-.71-.34-.11-.71.11-.82.37-1.05,2.01-2.35,4.59-2.95,5.78-.11.23-.48.48-.82.34-1.19-.11-4.14-.57-6.27-.94-.37-.11-.71.11-.93.37-.14.34,0,.71.23.94,1.53,1.53,3.54,3.66,4.48,4.59.26.26.37.6.14.96-.6,1.05-1.9,3.66-2.86,5.67-.23.23-.11.71.14.94.23.23.6.23.93.11h0Z"/>
          <path class="cls-1" d="M189.66,85.56c2.01-1.87,5.44-4.96,6.63-6.01.23-.25.57-.25.93-.11,1.3.82,5.3,3.06,7.68,4.48.34.23.71.11.93-.11.37-.26.37-.6.23-.96-1.16-2.58-2.95-6.6-3.66-8.13-.11-.23,0-.71.26-.93,1.16-1.08,4.48-4.02,6.61-5.92.23-.23.34-.59.23-.93-.11-.37-.45-.48-.82-.48-2.83.23-7.31.71-8.84.96-.37,0-.71-.14-.85-.48-.71-1.53-2.47-5.56-3.66-8.16-.11-.34-.45-.6-.82-.45-.34,0-.6.23-.71.57-.6,2.84-1.53,7.23-1.9,8.76,0,.34-.34.59-.71.59-1.53.23-6.01.71-8.84.94-.37.11-.6.37-.71.71-.11.37.11.6.34.82,2.49,1.42,6.38,3.66,7.8,4.51.26.11.48.45.37.82-.37,1.53-1.3,6.01-1.9,8.73,0,.37.11.71.48.94.23.14.6.14.94-.11h0Z"/>
          <path class="cls-2" d="M195.04,171.99c1.56-.6,3.54-1.3,4.51-1.64.34-.14.71,0,.93.34.6.71,1.9,2.49,2.83,3.77.23.26.6.37.93.26.37-.11.6-.37.6-.71-.11-1.79-.11-3.8-.11-4.85,0-.37.23-.6.48-.71.93-.37,2.95-1.08,4.59-1.64.26-.14.48-.37.48-.71,0-.37-.23-.71-.6-.85-1.53-.45-3.54-1.05-4.48-1.28-.37-.14-.6-.48-.6-.85,0-.94-.11-3.06-.11-4.71,0-.37-.26-.71-.6-.82-.37-.14-.71.11-.82.34-1.08,1.42-2.24,3.06-2.83,3.91-.11.34-.48.45-.82.34-.96-.34-2.98-.93-4.62-1.42-.34-.11-.71,0-.93.37-.11.23-.11.57.11.94.94,1.3,2.24,2.95,2.83,3.77.23.25.23.71,0,.96-.6.82-1.79,2.58-2.72,3.88-.23.37-.11.71,0,.93.23.37.6.48.93.37h0Z"/>
        </g>
        <g>
          <path class="cls-4" d="M65.67,119.83c-2.07,0-3.74-1.67-3.74-3.74s1.67-3.74,3.74-3.74,3.74,1.67,3.74,3.74-1.67,3.74-3.74,3.74h0Z"/>
          <path class="cls-3" d="M109.6,113.26c1.9-.93,4.62-2.35,5.67-2.95.37-.11.71-.11.93.23.82.85,2.98,2.98,4.51,4.51.23.23.6.23.93.11.37-.11.48-.48.48-.82-.37-2.13-.82-5.07-1.08-6.38,0-.25.11-.59.48-.82,1.05-.48,3.77-1.9,5.67-2.83.34-.25.48-.48.48-.85-.14-.34-.37-.57-.71-.71-2.13-.34-5.1-.82-6.27-.94-.37-.11-.71-.34-.71-.71-.26-1.19-.71-4.14-1.08-6.26,0-.34-.23-.71-.6-.71-.34-.11-.71.11-.82.37-1.05,2.01-2.35,4.59-2.95,5.78-.11.23-.48.48-.82.34-1.19-.11-4.14-.57-6.27-.94-.37-.11-.71.11-.93.37-.14.34,0,.71.23.94,1.53,1.53,3.54,3.66,4.48,4.59.26.26.37.6.14.96-.6,1.05-1.9,3.66-2.86,5.67-.23.23-.11.71.14.94.23.23.6.23.93.11h0Z"/>
          <path class="cls-1" d="M155.01,164.96c2.83-.6,7.2-1.53,8.73-1.9.37,0,.71.11.96.48.71,1.3,2.95,5.19,4.48,7.68.11.34.48.45.82.45.37-.11.6-.34.6-.71.37-2.83.82-7.31.93-8.96,0-.37.37-.6.6-.71,1.67-.26,6.04-1.19,8.87-1.79.23-.11.6-.34.6-.71,0-.34-.11-.71-.48-.82-2.61-1.19-6.75-3.06-8.16-3.66-.34-.11-.57-.48-.45-.82.11-1.56.6-6.04.93-8.87,0-.37-.23-.71-.48-.82-.34-.25-.71-.11-.93.11-1.9,2.13-4.96,5.56-6.01,6.75-.25.23-.6.34-.96.11-1.42-.6-5.56-2.49-8.14-3.54-.37-.25-.71-.14-.96.11-.23.23-.23.71-.11.94,1.53,2.49,3.8,6.38,4.51,7.79.23.25.11.71-.14.96-1.05,1.16-4,4.48-5.9,6.61-.23.23-.23.6-.11.93.11.25.48.48.82.37h0Z"/>
          <path class="cls-1" d="M68.59,85.56c2.01-1.87,5.44-4.96,6.63-6.01.23-.25.57-.25.93-.11,1.3.82,5.3,3.06,7.68,4.48.34.23.71.11.93-.11.37-.26.37-.6.23-.96-1.16-2.58-2.95-6.6-3.66-8.13-.11-.23,0-.71.26-.93,1.16-1.08,4.48-4.02,6.61-5.92.23-.23.34-.59.23-.93-.11-.37-.45-.48-.82-.48-2.83.23-7.31.71-8.84.96-.37,0-.71-.14-.85-.48-.71-1.53-2.47-5.56-3.66-8.16-.11-.34-.45-.6-.82-.45-.34,0-.6.23-.71.57-.6,2.84-1.53,7.23-1.9,8.76,0,.34-.34.59-.71.59-1.53.23-6.01.71-8.84.94-.37.11-.6.37-.71.71-.11.37.11.6.34.82,2.49,1.42,6.38,3.66,7.8,4.51.26.11.48.45.37.82-.37,1.53-1.3,6.01-1.9,8.73,0,.37.11.71.48.94.23.14.6.14.94-.11h0Z"/>
          <path class="cls-2" d="M124.66,153.23c1.64-.11,3.77-.34,4.73-.34.34,0,.71.11.82.45.34.96,1.19,2.83,1.76,4.39.14.34.48.57.85.57.34-.11.57-.34.71-.57.45-1.67.93-3.8,1.16-4.73.11-.37.37-.6.71-.6.96-.11,3.09-.23,4.73-.34.37,0,.71-.26.71-.6.11-.37,0-.71-.34-.82-1.45-.96-3.2-2.01-4.02-2.61-.26-.11-.48-.48-.37-.82.26-.96.71-3.09,1.19-4.73,0-.23-.11-.6-.37-.82-.34-.11-.71-.11-.93.11-1.3,1.08-2.95,2.35-3.66,3.06-.37.25-.71.25-.93,0-.85-.45-2.72-1.64-4.14-2.47-.25-.23-.6-.11-.96.11-.23.11-.34.6-.23.82.71,1.67,1.53,3.54,1.9,4.51.11.34,0,.71-.26.93-.82.59-2.35,2.01-3.66,3.06-.23.25-.34.6-.23.82.11.37.48.6.82.6h0Z"/>
          <path class="cls-2" d="M73.97,171.99c1.56-.6,3.54-1.3,4.51-1.64.34-.14.71,0,.93.34.6.71,1.9,2.49,2.83,3.77.23.26.6.37.93.26.37-.11.6-.37.6-.71-.11-1.79-.11-3.8-.11-4.85,0-.37.23-.6.48-.71.93-.37,2.95-1.08,4.59-1.64.26-.14.48-.37.48-.71,0-.37-.23-.71-.6-.85-1.53-.45-3.54-1.05-4.48-1.28-.37-.14-.6-.48-.6-.85,0-.94-.11-3.06-.11-4.71,0-.37-.26-.71-.6-.82-.37-.14-.71.11-.82.34-1.08,1.42-2.24,3.06-2.83,3.91-.11.34-.48.45-.82.34-.96-.34-2.98-.93-4.62-1.42-.34-.11-.71,0-.93.37-.11.23-.11.57.11.94.94,1.3,2.24,2.95,2.83,3.77.23.25.23.71,0,.96-.6.82-1.79,2.58-2.72,3.88-.23.37-.11.71,0,.93.23.37.6.48.93.37h0Z"/>
          <path class="cls-2" d="M153,110.54c.6-.62,1.36-1.56,1.76-1.93.06-.14.34-.2.45-.14.51.2,1.62.65,2.47,1.05.14.06.4,0,.45-.14.14-.11.2-.4.06-.51-.45-.79-1.02-1.76-1.36-2.27-.06-.14-.06-.34.08-.51.31-.4,1.11-1.3,1.67-1.96.14-.2.2-.4.06-.51-.06-.2-.26-.28-.45-.2-.91.2-2.07.45-2.58.57-.2,0-.4-.06-.45-.2-.34-.51-.91-1.47-1.36-2.27-.14-.11-.34-.25-.45-.2-.2.09-.34.2-.4.4-.06.91-.11,2.07-.2,2.61,0,.2-.2.37-.31.37-.6.14-1.7.4-2.61.65-.2,0-.31.2-.31.4s.06.34.26.4c.85.4,1.96.85,2.41,1.02.17.09.31.28.31.45-.06.6-.2,1.7-.26,2.61,0,.2.11.4.26.45.2.06.4.06.51-.14h0Z"/>
          <path class="cls-5" d="M139.17,69.34l.37-7.09c0-.48-.34-.85-.79-.85-.48-.03-.85.34-.85.79l-.42,7.88c-2.58-1.62-4.99-3.03-5.33-3.03-.48,0-.85.37-.85.85,0,.45.37.82.85.82.11,0,2.13,1.25,4.42,2.69l-4.39,3.46c-.37.28-.42.82-.14,1.16.28.37.79.43,1.16.14l4.22-3.32-.11,6.69c0,.45.37.85.82.85s.82-.37.85-.82l.08-6.6c2.41,1.53,4.54,2.89,4.54,2.89.4.25.91.14,1.16-.26.23-.4.11-.91-.26-1.13-.03-.03-2.41-1.53-5.07-3.2l4.82-3.83c.37-.28.43-.79.14-1.16-.28-.37-.79-.43-1.16-.14l-4.05,3.21Z"/>
        </g>
        <g>
          <path class="cls-3" d="M-11.46,113.26c1.9-.93,4.62-2.35,5.67-2.95.37-.11.71-.11.93.23.82.85,2.98,2.98,4.51,4.51.23.23.6.23.93.11.37-.11.48-.48.48-.82-.37-2.13-.82-5.07-1.08-6.38,0-.25.11-.59.48-.82,1.05-.48,3.77-1.9,5.67-2.83.34-.25.48-.48.48-.85-.14-.34-.37-.57-.71-.71-2.13-.34-5.1-.82-6.27-.94-.37-.11-.71-.34-.71-.71-.26-1.19-.71-4.14-1.08-6.26,0-.34-.23-.71-.6-.71-.34-.11-.71.11-.82.37-1.05,2.01-2.35,4.59-2.95,5.78-.11.23-.48.48-.82.34-1.19-.11-4.14-.57-6.27-.94-.37-.11-.71.11-.93.37-.14.34,0,.71.23.94,1.53,1.53,3.54,3.66,4.48,4.59.26.26.37.6.14.96-.6,1.05-1.9,3.66-2.86,5.67-.23.23-.11.71.14.94.23.23.6.23.93.11h0Z"/>
          <path class="cls-1" d="M33.95,164.96c2.83-.6,7.2-1.53,8.73-1.9.37,0,.71.11.96.48.71,1.3,2.95,5.19,4.48,7.68.11.34.48.45.82.45.37-.11.6-.34.6-.71.37-2.83.82-7.31.93-8.96,0-.37.37-.6.6-.71,1.67-.26,6.04-1.19,8.87-1.79.23-.11.6-.34.6-.71,0-.34-.11-.71-.48-.82-2.61-1.19-6.75-3.06-8.16-3.66-.34-.11-.57-.48-.45-.82.11-1.56.6-6.04.93-8.87,0-.37-.23-.71-.48-.82-.34-.25-.71-.11-.93.11-1.9,2.13-4.96,5.56-6.01,6.75-.25.23-.6.34-.96.11-1.42-.6-5.56-2.49-8.14-3.54-.37-.25-.71-.14-.96.11-.23.23-.23.71-.11.94,1.53,2.49,3.8,6.38,4.51,7.79.23.25.11.71-.14.96-1.05,1.16-4,4.48-5.9,6.61-.23.23-.23.6-.11.93.11.25.48.48.82.37h0Z"/>
          <path class="cls-2" d="M3.59,153.23c1.64-.11,3.77-.34,4.73-.34.34,0,.71.11.82.45.34.96,1.19,2.83,1.76,4.39.14.34.48.57.85.57.34-.11.57-.34.71-.57.45-1.67.93-3.8,1.16-4.73.11-.37.37-.6.71-.6.96-.11,3.09-.23,4.73-.34.37,0,.71-.26.71-.6.11-.37,0-.71-.34-.82-1.45-.96-3.2-2.01-4.02-2.61-.26-.11-.48-.48-.37-.82.26-.96.71-3.09,1.19-4.73,0-.23-.11-.6-.37-.82-.34-.11-.71-.11-.93.11-1.3,1.08-2.95,2.35-3.66,3.06-.37.25-.71.25-.93,0-.85-.45-2.72-1.64-4.14-2.47-.25-.23-.6-.11-.96.11-.23.11-.34.6-.23.82.71,1.67,1.53,3.54,1.9,4.51.11.34,0,.71-.26.93-.82.59-2.35,2.01-3.66,3.06-.23.25-.34.6-.23.82.11.37.48.6.82.6h0Z"/>
          <path class="cls-2" d="M31.93,110.54c.6-.62,1.36-1.56,1.76-1.93.06-.14.34-.2.45-.14.51.2,1.62.65,2.47,1.05.14.06.4,0,.45-.14.14-.11.2-.4.06-.51-.45-.79-1.02-1.76-1.36-2.27-.06-.14-.06-.34.08-.51.31-.4,1.11-1.3,1.67-1.96.14-.2.2-.4.06-.51-.06-.2-.26-.28-.45-.2-.91.2-2.07.45-2.58.57-.2,0-.4-.06-.45-.2-.34-.51-.91-1.47-1.36-2.27-.14-.11-.34-.25-.45-.2-.2.09-.34.2-.4.4-.06.91-.11,2.07-.2,2.61,0,.2-.2.37-.31.37-.6.14-1.7.4-2.61.65-.2,0-.31.2-.31.4s.06.34.26.4c.85.4,1.96.85,2.41,1.02.17.09.31.28.31.45-.06.6-.2,1.7-.26,2.61,0,.2.11.4.26.45.2.06.4.06.51-.14h0Z"/>
          <path class="cls-5" d="M18.1,69.34l.37-7.09c0-.48-.34-.85-.79-.85-.48-.03-.85.34-.85.79l-.42,7.88c-2.58-1.62-4.99-3.03-5.33-3.03-.48,0-.85.37-.85.85,0,.45.37.82.85.82.11,0,2.13,1.25,4.42,2.69l-4.39,3.46c-.37.28-.42.82-.14,1.16.28.37.79.43,1.16.14l4.22-3.32-.11,6.69c0,.45.37.85.82.85s.82-.37.85-.82l.08-6.6c2.41,1.53,4.54,2.89,4.54,2.89.4.25.91.14,1.16-.26.23-.4.11-.91-.26-1.13-.03-.03-2.41-1.53-5.07-3.2l4.82-3.83c.37-.28.43-.79.14-1.16-.28-.37-.79-.43-1.16-.14l-4.05,3.21Z"/>
        </g>
        <g>
          <path class="cls-4" d="M126.2,3.33c-2.07,0-3.74-1.67-3.74-3.74s1.67-3.74,3.74-3.74,3.74,1.67,3.74,3.74-1.67,3.74-3.74,3.74h0Z"/>
          <path class="cls-1" d="M215.55,48.46c2.83-.6,7.2-1.53,8.73-1.9.37,0,.71.11.96.48.71,1.3,2.95,5.19,4.48,7.68.11.34.48.45.82.45.37-.11.6-.34.6-.71.37-2.83.82-7.31.93-8.96,0-.37.37-.6.6-.71,1.67-.26,6.04-1.19,8.87-1.79.23-.11.6-.34.6-.71,0-.34-.11-.71-.48-.82-2.61-1.19-6.75-3.06-8.16-3.66-.34-.11-.57-.48-.45-.82.11-1.56.6-6.04.93-8.87,0-.37-.23-.71-.48-.82-.34-.25-.71-.11-.93.11-1.9,2.13-4.96,5.56-6.01,6.75-.25.23-.6.34-.96.11-1.42-.6-5.56-2.49-8.14-3.54-.37-.25-.71-.14-.96.11-.23.23-.23.71-.11.94,1.53,2.49,3.8,6.38,4.51,7.79.23.25.11.71-.14.96-1.05,1.16-4,4.48-5.9,6.61-.23.23-.23.6-.11.93.11.25.48.48.82.37h0Z"/>
          <path class="cls-2" d="M185.19,36.72c1.64-.11,3.77-.34,4.73-.34.34,0,.71.11.82.45.34.96,1.19,2.83,1.76,4.39.14.34.48.57.85.57.34-.11.57-.34.71-.57.45-1.67.93-3.8,1.16-4.73.11-.37.37-.6.71-.6.96-.11,3.09-.23,4.73-.34.37,0,.71-.26.71-.6.11-.37,0-.71-.34-.82-1.45-.96-3.2-2.01-4.02-2.61-.26-.11-.48-.48-.37-.82.26-.96.71-3.09,1.19-4.73,0-.23-.11-.6-.37-.82-.34-.11-.71-.11-.93.11-1.3,1.08-2.95,2.35-3.66,3.06-.37.25-.71.25-.93,0-.85-.45-2.72-1.64-4.14-2.47-.25-.23-.6-.11-.96.11-.23.11-.34.6-.23.82.71,1.67,1.53,3.54,1.9,4.51.11.34,0,.71-.26.93-.82.59-2.35,2.01-3.66,3.06-.23.25-.34.6-.23.82.11.37.48.6.82.6h0Z"/>
          <path class="cls-2" d="M134.51,55.49c1.56-.6,3.54-1.3,4.51-1.64.34-.14.71,0,.93.34.6.71,1.9,2.49,2.83,3.77.23.26.6.37.93.26.37-.11.6-.37.6-.71-.11-1.79-.11-3.8-.11-4.85,0-.37.23-.6.48-.71.93-.37,2.95-1.08,4.59-1.64.26-.14.48-.37.48-.71,0-.37-.23-.71-.6-.85-1.53-.45-3.54-1.05-4.48-1.28-.37-.14-.6-.48-.6-.85,0-.94-.11-3.06-.11-4.71,0-.37-.26-.71-.6-.82-.37-.14-.71.11-.82.34-1.08,1.42-2.24,3.06-2.83,3.91-.11.34-.48.45-.82.34-.96-.34-2.98-.93-4.62-1.42-.34-.11-.71,0-.93.37-.11.23-.11.57.11.94.94,1.3,2.24,2.95,2.83,3.77.23.25.23.71,0,.96-.6.82-1.79,2.58-2.72,3.88-.23.37-.11.71,0,.93.23.37.6.48.93.37h0Z"/>
        </g>
        <g>
          <path class="cls-4" d="M5.13,3.33C3.06,3.33,1.39,1.66,1.39-.41s1.67-3.74,3.74-3.74,3.74,1.67,3.74,3.74-1.67,3.74-3.74,3.74h0Z"/>
          <path class="cls-1" d="M94.48,48.46c2.83-.6,7.2-1.53,8.73-1.9.37,0,.71.11.96.48.71,1.3,2.95,5.19,4.48,7.68.11.34.48.45.82.45.37-.11.6-.34.6-.71.37-2.83.82-7.31.93-8.96,0-.37.37-.6.6-.71,1.67-.26,6.04-1.19,8.87-1.79.23-.11.6-.34.6-.71,0-.34-.11-.71-.48-.82-2.61-1.19-6.75-3.06-8.16-3.66-.34-.11-.57-.48-.45-.82.11-1.56.6-6.04.93-8.87,0-.37-.23-.71-.48-.82-.34-.25-.71-.11-.93.11-1.9,2.13-4.96,5.56-6.01,6.75-.25.23-.6.34-.96.11-1.42-.6-5.56-2.49-8.14-3.54-.37-.25-.71-.14-.96.11-.23.23-.23.71-.11.94,1.53,2.49,3.8,6.38,4.51,7.79.23.25.11.71-.14.96-1.05,1.16-4,4.48-5.9,6.61-.23.23-.23.6-.11.93.11.25.48.48.82.37h0Z"/>
          <path class="cls-2" d="M64.12,36.72c1.64-.11,3.77-.34,4.73-.34.34,0,.71.11.82.45.34.96,1.19,2.83,1.76,4.39.14.34.48.57.85.57.34-.11.57-.34.71-.57.45-1.67.93-3.8,1.16-4.73.11-.37.37-.6.71-.6.96-.11,3.09-.23,4.73-.34.37,0,.71-.26.71-.6.11-.37,0-.71-.34-.82-1.45-.96-3.2-2.01-4.02-2.61-.26-.11-.48-.48-.37-.82.26-.96.71-3.09,1.19-4.73,0-.23-.11-.6-.37-.82-.34-.11-.71-.11-.93.11-1.3,1.08-2.95,2.35-3.66,3.06-.37.25-.71.25-.93,0-.85-.45-2.72-1.64-4.14-2.47-.25-.23-.6-.11-.96.11-.23.11-.34.6-.23.82.71,1.67,1.53,3.54,1.9,4.51.11.34,0,.71-.26.93-.82.59-2.35,2.01-3.66,3.06-.23.25-.34.6-.23.82.11.37.48.6.82.6h0Z"/>
          <path class="cls-2" d="M13.44,55.49c1.56-.6,3.54-1.3,4.51-1.64.34-.14.71,0,.93.34.6.71,1.9,2.49,2.83,3.77.23.26.6.37.93.26.37-.11.6-.37.6-.71-.11-1.79-.11-3.8-.11-4.85,0-.37.23-.6.48-.71.93-.37,2.95-1.08,4.59-1.64.26-.14.48-.37.48-.71,0-.37-.23-.71-.6-.85-1.53-.45-3.54-1.05-4.48-1.28-.37-.14-.6-.48-.6-.85,0-.94-.11-3.06-.11-4.71,0-.37-.26-.71-.6-.82-.37-.14-.71.11-.82.34-1.08,1.42-2.24,3.06-2.83,3.91-.11.34-.48.45-.82.34-.96-.34-2.98-.93-4.62-1.42-.34-.11-.71,0-.93.37-.11.23-.11.57.11.94.94,1.3,2.24,2.95,2.83,3.77.23.25.23.71,0,.96-.6.82-1.79,2.58-2.72,3.88-.23.37-.11.71,0,.93.23.37.6.48.93.37h0Z"/>
        </g>
      </g>
    </pattern>
  </defs>
  <g id="Background">
    <rect class="cls-8" width="500" height="500"/>
  </g>
  <rect class="cls-6" width="500" height="500"/>
</svg>